<?xml version="1.0" standalone="no"?>
<!DOCTYPE svg PUBLIC "-//W3C//DTD SVG 20010904//EN"
 "http://www.w3.org/TR/2001/REC-SVG-20010904/DTD/svg10.dtd">
<svg version="1.0" xmlns="http://www.w3.org/2000/svg"
 width="260.000000pt" height="260.000000pt" viewBox="0 0 260.000000 260.000000"
 preserveAspectRatio="xMidYMid meet">
<metadata>
Created by potrace 1.14, written by Peter Selinger 2001-2017
</metadata>
<g transform="translate(0.000000,260.000000) scale(0.100000,-0.100000)"
fill="#000000" stroke="none">
<path d="M1051 2114 c-69 -19 -129 -52 -154 -86 -27 -36 -16 -73 39 -125 24
-24 44 -45 44 -47 0 -3 -30 -20 -66 -38 -137 -68 -196 -154 -214 -307 -15
-135 6 -223 66 -270 31 -25 62 -26 110 -6 l35 14 -25 44 c-37 62 -32 65 15 11
39 -45 40 -48 23 -61 -11 -8 -31 -17 -46 -20 -16 -3 -28 -8 -28 -12 0 -4 -18
-30 -39 -59 l-40 -53 20 -47 c27 -63 89 -142 141 -178 65 -46 75 -47 124 -19
l43 26 22 -22 c23 -23 49 -79 49 -106 0 -10 -21 -41 -46 -68 -25 -28 -56 -68
-69 -90 -23 -39 -50 -129 -37 -123 4 2 46 29 93 60 48 32 121 72 164 89 75 29
82 30 206 27 l128 -3 -32 33 c-18 19 -71 65 -119 104 l-88 71 0 54 c0 46 3 53
20 53 32 0 61 40 58 80 -3 34 -4 35 -50 37 -54 3 -64 -8 -76 -80 l-7 -42 -24
38 c-23 38 -31 121 -15 150 4 6 -3 3 -15 -8 -16 -14 -37 -20 -71 -20 -58 0
-66 6 -47 37 8 12 17 37 20 54 l6 31 -49 -5 c-38 -3 -56 0 -83 17 -56 35 -207
245 -164 228 9 -3 53 -14 96 -22 63 -13 91 -14 137 -6 67 13 78 9 32 -10 -19
-8 -68 -14 -115 -14 -46 0 -83 -1 -83 -3 0 -12 46 -88 71 -116 48 -55 92 -63
172 -31 18 7 18 3 12 -59 -7 -64 -7 -66 16 -66 14 0 39 17 66 45 48 51 48 51
28 -25 -8 -30 -14 -68 -14 -85 l1 -30 9 26 c12 31 47 49 97 49 50 0 140 54
171 103 33 50 37 40 10 -22 -20 -47 -57 -89 -105 -117 -15 -10 -17 -14 -6 -25
31 -33 5 -127 -39 -136 -26 -5 -26 -6 -16 -45 8 -33 19 -46 54 -67 164 -97
220 -142 276 -221 17 -24 17 -22 11 80 -7 112 -19 153 -61 209 -43 56 -37 112
20 190 24 34 50 81 56 104 l12 42 62 0 c87 0 88 19 2 102 l-66 64 7 67 c18
157 5 215 -72 309 -37 45 -42 63 -19 63 14 0 85 57 85 69 0 3 -41 5 -92 3 -90
-3 -92 -3 -187 41 -196 92 -301 84 -448 -32 -58 -45 -63 -42 -63 37 0 34 7 58
25 85 14 20 29 37 33 37 4 1 23 14 42 30 39 34 37 34 -39 14z m699 -772 c46
-30 47 -38 9 -46 -49 -10 -92 -7 -111 8 -15 11 -11 12 32 8 55 -5 60 1 30 33
-11 11 -22 36 -26 55 l-6 35 19 -35 c10 -19 34 -45 53 -58z"/>
</g>
</svg>
